<?xml version="1.0" encoding="UTF-8"?>
<svg width="1927px" height="767px" viewBox="0 0 1927 767" version="1.1" xmlns="http://www.w3.org/2000/svg" xmlns:xlink="http://www.w3.org/1999/xlink">
    <title>Hgraph-Logo-Horizontal_White</title>
    <g id="Production" stroke="none" stroke-width="1" fill="none" fill-rule="evenodd">
        <g id="Hgraph-Logo-Horizontal_" transform="translate(-295, -296)" fill="#FFFFFF" fill-rule="nonzero">
            <path d="M1311.724,577.28 L1311.724,783 L1277.98,783 L1277.98,693.016 L1181.188,693.016 L1181.188,783 L1147.444,783 L1147.444,577.28 L1181.188,577.28 L1181.188,665.488 L1277.98,665.488 L1277.98,577.28 L1311.724,577.28 Z M1421.836,617.24 C1434.46533,617.24 1445.664,619.756 1455.432,624.788 C1465.2,629.82 1472.84667,636.085333 1478.372,643.584 L1478.372,619.904 L1512.412,619.904 L1512.412,785.664 C1512.412,800.661333 1509.25467,814.030667 1502.94,825.772 C1496.62533,837.513333 1487.49867,846.738667 1475.56,853.448 C1463.62133,860.157333 1449.364,863.512 1432.788,863.512 C1410.68667,863.512 1392.33467,858.332 1377.732,847.972 C1363.12933,837.612 1354.84133,823.552 1352.868,805.792 L1386.316,805.792 C1388.88133,814.277333 1394.35733,821.134667 1402.744,826.364 C1411.13067,831.593333 1421.14533,834.208 1432.788,834.208 C1446.404,834.208 1457.40533,830.064 1465.792,821.776 C1474.17867,813.488 1478.372,801.450667 1478.372,785.664 L1478.372,758.432 C1472.64933,766.128 1464.904,772.590667 1455.136,777.82 C1445.368,783.049333 1434.268,785.664 1421.836,785.664 C1407.628,785.664 1394.65333,782.062667 1382.912,774.86 C1371.17067,767.657333 1361.896,757.593333 1355.088,744.668 C1348.28,731.742667 1344.876,717.090667 1344.876,700.712 C1344.876,684.333333 1348.28,669.829333 1355.088,657.2 C1361.896,644.570667 1371.17067,634.753333 1382.912,627.748 C1394.65333,620.742667 1407.628,617.24 1421.836,617.24 Z M1478.372,701.304 C1478.372,690.056 1476.05333,680.288 1471.416,672 C1466.77867,663.712 1460.71067,657.397333 1453.212,653.056 C1445.71333,648.714667 1437.62267,646.544 1428.94,646.544 C1420.25733,646.544 1412.16667,648.665333 1404.668,652.908 C1397.16933,657.150667 1391.10133,663.366667 1386.464,671.556 C1381.82667,679.745333 1379.508,689.464 1379.508,700.712 C1379.508,711.96 1381.82667,721.826667 1386.464,730.312 C1391.10133,738.797333 1397.21867,745.26 1404.816,749.7 C1412.41333,754.14 1420.45467,756.36 1428.94,756.36 C1437.62267,756.36 1445.71333,754.189333 1453.212,749.848 C1460.71067,745.506667 1466.77867,739.142667 1471.416,730.756 C1476.05333,722.369333 1478.372,712.552 1478.372,701.304 Z M1590.556,643.584 C1595.48933,635.296 1602.05067,628.833333 1610.24,624.196 C1618.42933,619.558667 1628.148,617.24 1639.396,617.24 L1639.396,652.168 L1630.812,652.168 C1617.59067,652.168 1607.576,655.522667 1600.768,662.232 C1593.96,668.941333 1590.556,680.584 1590.556,697.16 L1590.556,783 L1556.812,783 L1556.812,619.904 L1590.556,619.904 L1590.556,643.584 Z M1659.228,700.712 C1659.228,684.333333 1662.632,669.829333 1669.44,657.2 C1676.248,644.570667 1685.52267,634.753333 1697.264,627.748 C1709.00533,620.742667 1721.98,617.24 1736.188,617.24 C1749.01467,617.24 1760.21333,619.756 1769.784,624.788 C1779.35467,629.82 1787.00133,636.085333 1792.724,643.584 L1792.724,619.904 L1826.764,619.904 L1826.764,783 L1792.724,783 L1792.724,758.728 C1787.00133,766.424 1779.20667,772.837333 1769.34,777.968 C1759.47333,783.098667 1748.22533,785.664 1735.596,785.664 C1721.58533,785.664 1708.75867,782.062667 1697.116,774.86 C1685.47333,767.657333 1676.248,757.593333 1669.44,744.668 C1662.632,731.742667 1659.228,717.090667 1659.228,700.712 Z M1792.724,701.304 C1792.724,690.056 1790.40533,680.288 1785.768,672 C1781.13067,663.712 1775.06267,657.397333 1767.564,653.056 C1760.06533,648.714667 1751.97467,646.544 1743.292,646.544 C1734.60933,646.544 1726.51867,648.665333 1719.02,652.908 C1711.52133,657.150667 1705.45333,663.366667 1700.816,671.556 C1696.17867,679.745333 1693.86,689.464 1693.86,700.712 C1693.86,711.96 1696.17867,721.826667 1700.816,730.312 C1705.45333,738.797333 1711.57067,745.26 1719.168,749.7 C1726.76533,754.14 1734.80667,756.36 1743.292,756.36 C1751.97467,756.36 1760.06533,754.189333 1767.564,749.848 C1775.06267,745.506667 1781.13067,739.142667 1785.768,730.756 C1790.40533,722.369333 1792.724,712.552 1792.724,701.304 Z M1904.908,643.88 C1910.63067,636.381333 1918.42533,630.066667 1928.292,624.936 C1938.15867,619.805333 1949.308,617.24 1961.74,617.24 C1975.948,617.24 1988.92267,620.742667 2000.664,627.748 C2012.40533,634.753333 2021.63067,644.570667 2028.34,657.2 C2035.04933,669.829333 2038.404,684.333333 2038.404,700.712 C2038.404,717.090667 2035.04933,731.742667 2028.34,744.668 C2021.63067,757.593333 2012.40533,767.657333 2000.664,774.86 C1988.92267,782.062667 1975.948,785.664 1961.74,785.664 C1949.308,785.664 1938.25733,783.148 1928.588,778.116 C1918.91867,773.084 1911.02533,766.818667 1904.908,759.32 L1904.908,860.552 L1871.164,860.552 L1871.164,619.904 L1904.908,619.904 L1904.908,643.88 Z M2004.068,700.712 C2004.068,689.464 2001.74933,679.745333 1997.112,671.556 C1992.47467,663.366667 1986.35733,657.150667 1978.76,652.908 C1971.16267,648.665333 1963.02267,646.544 1954.34,646.544 C1945.85467,646.544 1937.81333,648.714667 1930.216,653.056 C1922.61867,657.397333 1916.50133,663.712 1911.864,672 C1907.22667,680.288 1904.908,690.056 1904.908,701.304 C1904.908,712.552 1907.22667,722.369333 1911.864,730.756 C1916.50133,739.142667 1922.61867,745.506667 1930.216,749.848 C1937.81333,754.189333 1945.85467,756.36 1954.34,756.36 C1963.02267,756.36 1971.16267,754.14 1978.76,749.7 C1986.35733,745.26 1992.47467,738.797333 1997.112,730.312 C2001.74933,721.826667 2004.068,711.96 2004.068,700.712 Z M2156.212,617.24 C2168.644,617.24 2179.744,619.904 2189.512,625.232 C2199.28,630.56 2206.976,638.453333 2212.6,648.912 C2218.224,659.370667 2221.036,672 2221.036,686.8 L2221.036,783 L2187.588,783 L2187.588,691.832 C2187.588,677.229333 2183.93733,666.030667 2176.636,658.236 C2169.33467,650.441333 2159.36933,646.544 2146.74,646.544 C2134.11067,646.544 2124.096,650.441333 2116.696,658.236 C2109.296,666.030667 2105.596,677.229333 2105.596,691.832 L2105.596,783 L2071.852,783 L2071.852,563.96 L2105.596,563.96 L2105.596,638.848 C2111.31867,631.941333 2118.57067,626.613333 2127.352,622.864 C2136.13333,619.114667 2145.75333,617.24 2156.212,617.24 Z M404.688995,296 C465.268554,296 514.37799,345.086229 514.37799,405.637162 C514.37799,448.201751 490.110762,485.101104 454.650789,503.266916 L454.649,590.597 L868.436,590.597 L868.436,624.074 L421.563,624.074 L421.563853,479.923155 C455.525299,472.248387 480.885167,441.902932 480.885167,405.637162 C480.885167,363.575064 446.770979,329.476996 404.688995,329.476996 C362.607011,329.476996 328.492823,363.575064 328.492823,405.637162 C328.492823,442.000627 353.989507,472.411837 388.088787,479.984685 L388.089459,514.027043 C388.040186,514.019567 387.990924,514.012058 387.941672,514.004516 L387.941672,844.618691 L388.089,844.596 L388.088787,878.638522 C353.989507,886.21137 328.492823,916.62258 328.492823,952.986046 C328.492823,995.048144 362.607011,1029.14621 404.688995,1029.14621 C446.770979,1029.14621 480.885167,995.048144 480.885167,952.986046 C480.885167,916.720275 455.525299,886.37482 421.563853,878.700052 L421.564347,844.638374 C474.132149,852.751662 514.37799,898.171115 514.37799,952.986046 C514.37799,1013.53698 465.268554,1062.62321 404.688995,1062.62321 C344.109436,1062.62321 295,1013.53698 295,952.986046 C295,910.532892 319.140329,873.71535 354.448924,855.499353 L354.448924,503.123854 C319.140329,484.907857 295,448.090315 295,405.637162 C295,345.086229 344.109436,296 404.688995,296 Z M885.311005,296 C945.890564,296 995,345.086229 995,405.637162 C995,448.201751 970.732772,485.101104 935.272798,503.266916 L935.272798,855.356291 C970.732772,873.522103 995,910.421456 995,952.986046 C995,1013.53698 945.890564,1062.62321 885.311005,1062.62321 C824.731446,1062.62321 775.62201,1013.53698 775.62201,952.986046 C775.62201,910.522907 799.773696,873.698031 835.09585,855.486502 L835.31,766.351 L421.563,766.351 L421.563,732.874 L868.436,732.874 L868.436147,878.700052 C834.474701,886.37482 809.114833,916.720275 809.114833,952.986046 C809.114833,995.048144 843.229021,1029.14621 885.311005,1029.14621 C927.392989,1029.14621 961.507177,995.048144 961.507177,952.986046 C961.507177,916.62258 936.010493,886.21137 901.911213,878.638522 L901.911213,479.984685 C936.010493,472.411837 961.507177,442.000627 961.507177,405.637162 C961.507177,363.575064 927.392989,329.476996 885.311005,329.476996 C843.229021,329.476996 809.114833,363.575064 809.114833,405.637162 C809.114833,441.902932 834.474701,472.248387 868.436147,479.923155 L868.435653,513.984834 C815.867851,505.871545 775.62201,460.452093 775.62201,405.637162 C775.62201,345.086229 824.731446,296 885.311005,296 Z M868.436,662.294 L868.436,695.771 L421.563,695.771 L421.563,662.294 L868.436,662.294 Z" id="Hgraph-Logo-Horizontal_White"></path>
        </g>
    </g>
</svg>